<?xml version="1.0" standalone="no"?>
<!DOCTYPE svg PUBLIC "-//W3C//DTD SVG 20010904//EN"
 "http://www.w3.org/TR/2001/REC-SVG-20010904/DTD/svg10.dtd">
<svg version="1.0" xmlns="http://www.w3.org/2000/svg"
 width="200.000000pt" height="200.000000pt" viewBox="0 0 200.000000 200.000000"
 preserveAspectRatio="xMidYMid meet">

<g transform="translate(0.000000,200.000000) scale(0.100000,-0.100000)"
fill="#000000" stroke="none">
<path d="M1169 1520 c-143 -14 -278 -75 -384 -172 -36 -33 -64 -62 -61 -65 2
-2 39 3 82 12 109 23 224 6 325 -47 125 -65 233 -217 246 -343 3 -33 11 -63
17 -67 17 -12 560 -10 572 2 14 14 -29 219 -61 288 -28 61 -95 150 -157 208
-149 140 -358 207 -579 184z"/>
<path d="M30 1166 c0 -59 33 -207 60 -264 49 -105 130 -200 235 -274 67 -48
116 -71 205 -99 66 -21 93 -24 220 -22 133 1 152 4 227 30 45 16 106 45 137
63 60 37 174 135 166 143 -3 3 -32 -1 -65 -9 -173 -40 -340 7 -462 132 -78 79
-121 164 -131 256 l-7 63 -292 3 -293 2 0 -24z"/>
<path d="M934 1159 c-67 -19 -123 -121 -109 -196 7 -41 59 -101 102 -119 109
-46 242 36 243 149 0 37 0 37 -41 37 -31 0 -47 6 -70 29 -23 23 -29 39 -29 70
0 40 -1 41 -32 40 -18 0 -47 -5 -64 -10z"/>
</g>
</svg>
